Coordinates
version=1
nRows=13
nColumns=38
inDegrees=no

Units are S.I. units (second, meters, Newtons, ...)
If the header above contains a line with 'inDegrees', this indicates whether rotational values are in degrees (yes) or radians (no).

endheader
time	pelvis_tilt	pelvis_list	pelvis_rotation	pelvis_tx	pelvis_ty	pelvis_tz	hip_flexion_r	hip_adduction_r	hip_rotation_r	knee_angle_r	ankle_angle_r	subtalar_angle_r	mtp_angle_r	hip_flexion_l	hip_adduction_l	hip_rotation_l	knee_angle_l	ankle_angle_l	subtalar_angle_l	mtp_angle_l	lumbar_extension	lumbar_bending	lumbar_rotation	arm_flex_r	arm_add_r	arm_rot_r	elbow_flex_r	pro_sup_r	wrist_flex_r	wrist_dev_r	arm_flex_l	arm_add_l	arm_rot_l	elbow_flex_l	pro_sup_l	wrist_flex_l	wrist_dev_l
0.95	-3.05375	1.40065	1.55988	0.688841	-0.247256	1.011	0.787381	-0.0473411	-0.0118713	0.83116	0.132485	0	0	0.15007	-0.0488152	-0.289062	0.572993	0.246944	0	0	0.147448	0.0533799	-0.162284	-0.206364	-0.344273	0.940238	0.492061	0.900363	0	0	-0.0536861	-0.45209	0.308447	0.790759	1.48159	0	0
0.96	-3.0581	1.39101	1.56671	0.689381	-0.258301	1.00889	0.792225	-0.0484048	-0.0162046	0.775672	0.154911	0	0	0.14784	-0.0483243	-0.287205	0.571852	0.250707	0	0	0.158304	0.0543299	-0.172491	-0.204839	-0.339573	0.976329	0.476951	0.870302	0	0	-0.0606009	-0.45478	0.282625	0.80498	1.49823	0	0
0.97	-3.05956	1.38282	1.57081	0.68989	-0.269422	1.00677	0.795329	-0.0486431	-0.0211205	0.72178	0.168657	0	0	0.144213	-0.0488623	-0.286457	0.571388	0.253115	0	0	0.168096	0.0563285	-0.177142	-0.213483	-0.332738	0.975561	0.465365	0.869606	0	0	-0.058219	-0.460809	0.280675	0.813516	1.49684	0	0
0.98	-3.05758	1.37492	1.57181	0.690334	-0.28063	1.00465	0.796347	-0.0475603	-0.0234738	0.667443	0.179622	0	0	0.140674	-0.0505351	-0.286083	0.571846	0.255199	0	0	0.177854	0.0589166	-0.182435	-0.221405	-0.32494	0.973739	0.451825	0.869673	0	0	-0.0559825	-0.46611	0.2794	0.819791	1.49467	0	0
0.99	-3.053	1.36752	1.57074	0.690733	-0.291987	1.00258	0.795695	-0.0459944	-0.0234221	0.617166	0.190226	0	0	0.136931	-0.0531422	-0.285968	0.573007	0.25651	0	0	0.187486	0.0621377	-0.188392	-0.228957	-0.316835	0.969983	0.437614	0.869948	0	0	-0.053749	-0.470682	0.279195	0.823837	1.49161	0	0
1	-3.04476	1.36145	1.56674	0.69111	-0.30351	1.00065	0.793086	-0.0442459	-0.0225724	0.573112	0.20103	0	0	0.131948	-0.0565646	-0.284351	0.574428	0.257425	0	0	0.196263	0.0662361	-0.195056	-0.236287	-0.308579	0.963968	0.423128	0.871617	0	0	-0.0507712	-0.474711	0.281472	0.825005	1.48634	0	0
1.01	-3.03111	1.35749	1.55788	0.691462	-0.315165	0.999055	0.785764	-0.0409799	-0.0177178	0.529463	0.204696	0	0	0.124764	-0.061175	-0.281234	0.57566	0.257783	0	0	0.202602	0.0709068	-0.208474	-0.227605	-0.303565	1.02459	0.402524	0.815372	0	0	-0.0564561	-0.474106	0.26268	0.8272	1.49731	0	0
1.02	-3.0171	1.35427	1.54942	0.691923	-0.326945	0.997478	0.782413	-0.0387907	-0.0175396	0.503905	0.211355	0	0	0.117408	-0.0660969	-0.277789	0.578369	0.257585	0	0	0.208233	0.0762894	-0.217398	-0.231433	-0.292774	1.02263	0.381246	0.816442	0	0	-0.05452	-0.475325	0.261928	0.824483	1.49494	0	0
1.03	-3.00459	1.35165	1.54195	0.692315	-0.338862	0.995883	0.783692	-0.0365762	-0.0200894	0.496635	0.216034	0	0	0.109617	-0.0713157	-0.275996	0.581625	0.256271	0	0	0.213614	0.0816817	-0.22567	-0.235771	-0.28526	1.0208	0.366336	0.818354	0	0	-0.0530615	-0.475419	0.260543	0.820448	1.49177	0	0
1.04	-2.99089	1.34923	1.53318	0.692605	-0.350933	0.994349	0.786889	-0.0333782	-0.0233196	0.50016	0.218455	0	0	0.102539	-0.0773774	-0.274452	0.586278	0.2539	0	0	0.219051	0.0874498	-0.23407	-0.239565	-0.277806	1.01771	0.351393	0.822252	0	0	-0.0521585	-0.47488	0.259788	0.814705	1.48788	0	0
1.05	-2.97593	1.34705	1.52334	0.692809	-0.363158	0.992882	0.791015	-0.0294877	-0.0260853	0.511357	0.216704	0	0	0.0962452	-0.0840933	-0.272116	0.592316	0.250585	0	0	0.224481	0.0934212	-0.242535	-0.243305	-0.270866	1.01201	0.337701	0.828954	0	0	-0.0516343	-0.47376	0.260075	0.807451	1.48281	0	0
1.06	-2.96469	1.34408	1.51783	0.692955	-0.375575	0.991341	0.799674	-0.0269314	-0.0310612	0.537293	0.215254	0	0	0.0913978	-0.0897821	-0.266746	0.598626	0.245446	0	0	0.23161	0.0973942	-0.255205	-0.235972	-0.268413	1.07795	0.323701	0.770857	0	0	-0.0574113	-0.472717	0.254124	0.802618	1.47803	0	0
1.07	-2.95217	1.34205	1.51133	0.693103	-0.388248	0.989913	0.805932	-0.0237491	-0.0340729	0.565882	0.209501	0	0	0.0857063	-0.0958016	-0.260581	0.60517	0.239238	0	0	0.237255	0.10207	-0.264551	-0.239194	-0.261746	1.07335	0.310668	0.781406	0	0	-0.059558	-0.471699	0.256041	0.795435	1.47044	0	0
